<svg width="350" height="348" viewBox="0 0 350 348" fill="none" xmlns="http://www.w3.org/2000/svg">
<g clip-path="url(#clip0_0_740)">
<mask id="mask0_0_740" style="mask-type:luminance" maskUnits="userSpaceOnUse" x="0" y="0" width="350" height="348">
<path d="M350 0H0V348H350V0Z" fill="white"/>
</mask>
<g mask="url(#mask0_0_740)">
<path d="M326.018 262.663C345.485 221.119 346.794 165.766 333.354 121.382C321.783 83.172 296.037 54.0305 266.294 36.6723C231.791 16.537 190.659 10.5444 153.629 23.2534C143.885 26.5942 134.407 29.6566 125.223 35.148C87.5771 57.6567 94.8431 113.128 81.6341 132.421C70.5181 148.652 49.2731 143.87 35.8751 156.308C-0.279883 189.883 -0.370881 274.732 41.3421 301.25C85.5961 329.389 277.802 365.56 326.018 262.663Z" fill="#000001"/>
<g opacity="0.8">
<mask id="mask1_0_740" style="mask-type:luminance" maskUnits="userSpaceOnUse" x="9" y="16" width="334" height="316">
<path d="M342.244 16.5929H9.37305V331.101H342.244V16.5929Z" fill="white"/>
</mask>
<g mask="url(#mask1_0_740)">
<path d="M326.018 262.663C345.485 221.119 346.794 165.766 333.354 121.382C321.783 83.172 296.037 54.0305 266.294 36.6723C231.791 16.537 190.659 10.5444 153.629 23.2534C143.885 26.5942 134.407 29.6566 125.223 35.148C87.5771 57.6567 94.8431 113.128 81.6341 132.421C70.5181 148.652 49.2731 143.87 35.8751 156.308C-0.279883 189.883 -0.370881 274.732 41.3421 301.25C85.5961 329.389 277.802 365.56 326.018 262.663Z" fill="white"/>
</g>
</g>
</g>
<mask id="mask2_0_740" style="mask-type:luminance" maskUnits="userSpaceOnUse" x="0" y="0" width="350" height="348">
<path d="M350 0H0V348H350V0Z" fill="white"/>
</mask>
<g mask="url(#mask2_0_740)">
<path d="M305.389 53.1466C305.389 53.1466 297.332 40.8622 287.126 35.5238C276.92 30.1855 266.714 34.452 262.955 39.7973C259.196 45.1356 261.884 51.5458 257.047 52.6176C252.217 53.6894 248.99 48.8801 244.153 52.6176C239.316 56.3551 239.316 61.6935 236.635 62.2294C233.947 62.7653 230.188 57.42 226.429 61.6934C222.67 65.9669 219.982 69.1685 219.982 69.1685C219.982 69.1685 217.294 65.9669 213.535 69.7044L209.776 73.4419H330.092C330.092 73.4419 331.17 63.2942 325.262 57.9559C319.354 52.6176 315.595 59.0278 311.836 58.4918C308.077 57.9559 305.389 53.1535 305.389 53.1535V53.1466Z" stroke="#000001" stroke-linecap="round" stroke-linejoin="round"/>
<path d="M316.127 73.4419C316.127 73.4419 310.219 55.2832 294.644 52.0816C279.069 48.88 279.069 63.2942 276.381 65.9668C273.693 68.6395 269.934 64.895 265.636 66.5028C261.338 68.1036 258.657 72.9129 258.657 72.9129" stroke="#000001" stroke-linecap="round" stroke-linejoin="round"/>
<path d="M79.6251 71.1381C79.6251 71.1381 74.6551 63.5657 68.3621 60.2666C62.0691 56.9745 55.7761 59.6054 53.4591 62.9045C51.1421 66.1965 52.7941 70.1498 49.8121 70.811C46.8301 71.4722 44.8421 68.5073 41.8601 70.811C38.8781 73.1148 38.8781 76.4138 37.2261 76.7409C35.5671 77.0681 33.2501 73.776 30.9331 76.4138C28.6161 79.0517 26.9571 81.0283 26.9571 81.0283C26.9571 81.0283 25.2981 79.0517 22.9811 81.3554L20.6641 83.6592H94.8641C94.8641 83.6592 95.529 77.4021 91.882 74.1101C88.235 70.818 85.9181 74.7713 83.6011 74.4372C81.2841 74.1101 79.6251 71.1451 79.6251 71.1451V71.1381Z" stroke="#000001" stroke-linecap="round" stroke-linejoin="round"/>
<path d="M86.254 83.6523C86.254 83.6523 82.607 72.4536 73.003 70.477C63.399 68.5004 63.399 77.3952 61.74 79.0378C60.081 80.6873 57.764 78.3766 55.118 79.3649C52.465 80.3532 50.813 83.3182 50.813 83.3182" stroke="#000001" stroke-linecap="round" stroke-linejoin="round"/>
<path d="M164.066 243.593C164.066 243.593 159.096 236.021 152.803 232.722C146.51 229.429 140.217 232.06 137.9 235.359C135.583 238.652 137.235 242.605 134.253 243.266C131.271 243.927 129.283 240.962 126.301 243.266C123.319 245.57 123.319 248.862 121.667 249.196C120.008 249.523 117.691 246.231 115.374 248.869C113.057 251.507 111.398 253.476 111.398 253.476C111.398 253.476 109.739 251.5 107.422 253.803L105.105 256.107H179.305C179.305 256.107 179.97 249.85 176.323 246.558C172.676 243.266 170.359 247.219 168.042 246.885C165.725 246.558 164.066 243.593 164.066 243.593Z" stroke="#000001" stroke-linecap="round" stroke-linejoin="round"/>
<path d="M170.695 256.107C170.695 256.107 167.048 244.908 157.444 242.932C147.84 240.955 147.84 249.85 146.181 251.493C144.522 253.142 142.205 250.831 139.559 251.82C136.913 252.808 135.254 255.773 135.254 255.773" stroke="#000001" stroke-linecap="round" stroke-linejoin="round"/>
</g>
<path d="M10.157 338.736H339.29" stroke="#000001" stroke-linecap="round" stroke-linejoin="round"/>
<path d="M114.135 103.787H71.8201V338.736H114.135V103.787Z" fill="#000001"/>
<path d="M114.135 103.787H71.8201V338.736H114.135V103.787Z" stroke="#000001" stroke-linecap="round" stroke-linejoin="round"/>
<path d="M116.228 103.787H73.9131V338.736H116.228V103.787Z" fill="#000001"/>
<path d="M116.228 103.787H73.9131V338.736H116.228V103.787Z" stroke="#000001" stroke-linecap="round" stroke-linejoin="round"/>
<path d="M212.401 102.389H61.439V116.531H212.401V102.389Z" fill="#000001"/>
<path d="M212.401 102.389H61.439V116.531H212.401V102.389Z" stroke="#000001" stroke-linecap="round" stroke-linejoin="round"/>
<path d="M212.408 102.389H116.284V116.531H212.408V102.389Z" fill="white"/>
<path d="M212.408 102.389H116.284V116.531H212.408V102.389Z" stroke="#000001" stroke-linecap="round" stroke-linejoin="round"/>
<path d="M187.012 102.256H144.697V157.421H187.012V102.256Z" fill="#000001"/>
<path d="M187.012 102.256H144.697V157.421H187.012V102.256Z" stroke="#000001" stroke-linecap="round" stroke-linejoin="round"/>
<path d="M189.105 102.256H146.79V157.421H189.105V102.256Z" fill="#000001"/>
<path d="M189.105 102.256H146.79V157.421H189.105V102.256Z" stroke="#000001" stroke-linecap="round" stroke-linejoin="round"/>
<path d="M299.852 267.883H148.89V282.026H299.852V267.883Z" fill="#000001"/>
<path d="M299.852 267.883H148.89V282.026H299.852V267.883Z" stroke="#000001" stroke-linecap="round" stroke-linejoin="round"/>
<path d="M299.859 267.883H203.735V282.026H299.859V267.883Z" fill="white"/>
<path d="M299.859 267.883H203.735V282.026H299.859V267.883Z" stroke="#000001" stroke-linecap="round" stroke-linejoin="round"/>
<path d="M273.056 267.883H230.741V323.048H273.056V267.883Z" fill="#000001"/>
<path d="M273.056 267.883H230.741V323.048H273.056V267.883Z" stroke="#000001" stroke-linecap="round" stroke-linejoin="round"/>
<path d="M275.149 267.883H232.834V323.048H275.149V267.883Z" fill="#000001"/>
<path d="M275.149 267.883H232.834V323.048H275.149V267.883Z" stroke="#000001" stroke-linecap="round" stroke-linejoin="round"/>
<path d="M241.549 157.553H90.5869V171.696H241.549V157.553Z" fill="#000001"/>
<path d="M241.549 157.553H90.5869V171.696H241.549V157.553Z" stroke="#000001" stroke-linecap="round" stroke-linejoin="round"/>
<path d="M241.556 157.553H145.432V171.696H241.556V157.553Z" fill="white"/>
<path d="M241.556 157.553H145.432V171.696H241.556V157.553Z" stroke="#000001" stroke-linecap="round" stroke-linejoin="round"/>
<path d="M215.691 157.553H173.376V212.718H215.691V157.553Z" fill="#000001"/>
<path d="M215.691 157.553H173.376V212.718H215.691V157.553Z" stroke="#000001" stroke-linecap="round" stroke-linejoin="round"/>
<path d="M217.791 157.553H175.476V212.718H217.791V157.553Z" fill="#000001"/>
<path d="M217.791 157.553H175.476V212.718H217.791V157.553Z" stroke="#000001" stroke-linecap="round" stroke-linejoin="round"/>
<path d="M270.704 212.719H119.742V226.861H270.704V212.719Z" fill="#000001"/>
<path d="M270.704 212.719H119.742V226.861H270.704V212.719Z" stroke="#000001" stroke-linecap="round" stroke-linejoin="round"/>
<path d="M270.711 212.719H174.587V226.861H270.711V212.719Z" fill="white"/>
<path d="M270.711 212.719H174.587V226.861H270.711V212.719Z" stroke="#000001" stroke-linecap="round" stroke-linejoin="round"/>
<path d="M244.377 212.719H202.062V267.883H244.377V212.719Z" fill="#000001"/>
<path d="M244.377 212.719H202.062V267.883H244.377V212.719Z" stroke="#000001" stroke-linecap="round" stroke-linejoin="round"/>
<path d="M246.47 212.719H204.155V267.883H246.47V212.719Z" fill="#000001"/>
<path d="M246.47 212.719H204.155V267.883H246.47V212.719Z" stroke="#000001" stroke-linecap="round" stroke-linejoin="round"/>
<path d="M259.399 336.704H73.9131V338.736H259.399V336.704Z" fill="#000001"/>
<path d="M259.399 336.704H73.9131V338.736H259.399V336.704Z" stroke="#000001" stroke-linecap="round" stroke-linejoin="round"/>
<path d="M329.007 323.048H178.045V337.191H329.007V323.048Z" fill="#000001"/>
<path d="M329.007 323.048H178.045V337.191H329.007V323.048Z" stroke="#000001" stroke-linecap="round" stroke-linejoin="round"/>
<path d="M329.014 323.048H232.89V337.191H329.014V323.048Z" fill="white"/>
<path d="M329.014 323.048H232.89V337.191H329.014V323.048Z" stroke="#000001" stroke-linecap="round" stroke-linejoin="round"/>
<path d="M301.735 323.048H259.42V338.736H301.735V323.048Z" fill="#000001"/>
<path d="M301.735 323.048H259.42V338.736H301.735V323.048Z" stroke="#000001" stroke-linecap="round" stroke-linejoin="round"/>
<path d="M303.835 323.048H261.52V338.736H303.835V323.048Z" fill="#000001"/>
<path d="M303.835 323.048H261.52V338.736H303.835V323.048Z" stroke="#000001" stroke-linecap="round" stroke-linejoin="round"/>
<path d="M313.334 250.393L315.798 266.025L315.203 279.36H313.026L311.773 267.41L313.334 250.393Z" fill="white"/>
<path d="M313.334 250.393L315.798 266.025L315.203 279.36H313.026L311.773 267.41L313.334 250.393Z" stroke="#000001" stroke-linecap="round" stroke-linejoin="round"/>
<path d="M311.185 272.087H294.357L293.447 317.627H297.528L302.771 283.008L308.014 317.627H312.095L311.185 272.087Z" fill="#000001"/>
<path d="M311.185 272.087H294.357L293.447 317.627H297.528L302.771 283.008L308.014 317.627H312.095L311.185 272.087Z" stroke="#000001" stroke-linecap="round" stroke-linejoin="round"/>
<path d="M305.774 247.449L302.792 248.075L299.81 247.449L292.32 250.393L294.357 272.087H311.22L313.264 250.393L305.774 247.449Z" fill="white"/>
<path d="M305.774 247.449L302.792 248.075L299.81 247.449L292.32 250.393L294.357 272.087H311.22L313.264 250.393L305.774 247.449Z" stroke="#000001" stroke-linecap="round" stroke-linejoin="round"/>
<path d="M300.93 251.952L302.148 254.945L301.189 267.863L302.722 270.667L304.521 267.737L303.044 255.077L304.325 252.46L302.652 250.038L300.93 251.952Z" fill="#000001"/>
<path d="M300.93 251.952L302.148 254.945L301.189 267.863L302.722 270.667L304.521 267.737L303.044 255.077L304.325 252.46L302.652 250.038L300.93 251.952Z" stroke="#000001" stroke-linecap="round" stroke-linejoin="round"/>
<path d="M305.69 247.449L302.701 251.2L299.901 247.449V244.066H305.69V247.449Z" fill="#000001"/>
<path d="M305.69 247.449L302.701 251.2L299.901 247.449V244.066H305.69V247.449Z" stroke="#000001" stroke-linecap="round" stroke-linejoin="round"/>
<mask id="mask3_0_740" style="mask-type:luminance" maskUnits="userSpaceOnUse" x="0" y="0" width="350" height="348">
<path d="M350 0H0V348H350V0Z" fill="white"/>
</mask>
<g mask="url(#mask3_0_740)">
<path d="M298.844 240.538C298.844 240.538 298.158 239.549 297.976 240.412C297.787 241.275 299.026 242.827 299.026 242.827L298.851 240.538H298.844Z" fill="white"/>
<path d="M298.844 240.538C298.844 240.538 298.158 239.549 297.976 240.412C297.787 241.275 299.026 242.827 299.026 242.827L298.851 240.538H298.844Z" stroke="#000001" stroke-linecap="round" stroke-linejoin="round"/>
<path d="M306.656 240.538C306.656 240.538 307.342 239.549 307.524 240.412C307.713 241.275 306.474 242.827 306.474 242.827L306.649 240.538H306.656Z" fill="white"/>
<path d="M306.656 240.538C306.656 240.538 307.342 239.549 307.524 240.412C307.713 241.275 306.474 242.827 306.474 242.827L306.649 240.538H306.656Z" stroke="#000001" stroke-linecap="round" stroke-linejoin="round"/>
<path d="M305.501 246.05L304.906 246.809C304.43 247.414 303.695 247.776 302.918 247.776C302.204 247.776 301.525 247.477 301.042 246.948L300.293 246.119C299.474 245.215 299.019 244.045 299.019 242.827V238.798C299.019 236.73 300.706 235.053 302.785 235.053C304.864 235.053 306.551 236.73 306.551 238.798V243.022C306.551 244.122 306.18 245.187 305.501 246.05Z" fill="white"/>
<path d="M305.501 246.05L304.906 246.809C304.43 247.414 303.695 247.776 302.918 247.776C302.204 247.776 301.525 247.477 301.042 246.948L300.293 246.119C299.474 245.215 299.019 244.045 299.019 242.827V238.798C299.019 236.73 300.706 235.053 302.785 235.053C304.864 235.053 306.551 236.73 306.551 238.798V243.022C306.551 244.122 306.18 245.187 305.501 246.05Z" stroke="#000001" stroke-linecap="round" stroke-linejoin="round"/>
<path d="M301.791 243.349C301.791 243.349 301.532 243.892 301.812 244.115C302.092 244.338 302.848 244.47 303.408 244.296C303.968 244.122 303.653 243.245 303.653 243.245" stroke="#000001" stroke-width="0.5" stroke-linecap="round" stroke-linejoin="round"/>
<path d="M301.791 245.34C301.791 245.34 303.03 245.73 303.758 245.284" stroke="#000001" stroke-width="0.5" stroke-linecap="round" stroke-linejoin="round"/>
<path d="M301.868 240.712C301.868 240.712 301.007 240.259 300.223 240.879" stroke="#000001" stroke-width="0.5" stroke-linecap="round" stroke-linejoin="round"/>
<path d="M303.387 240.844C303.387 240.844 304.115 240.398 305.13 241.067" stroke="#000001" stroke-width="0.5" stroke-linecap="round" stroke-linejoin="round"/>
<path d="M301.546 241.909C301.546 242.138 301.385 242.326 301.189 242.326C300.993 242.326 300.832 242.138 300.832 241.909C300.832 241.679 300.993 241.491 301.189 241.491C301.385 241.491 301.546 241.679 301.546 241.909Z" fill="#000001"/>
<path d="M304.745 241.909C304.745 242.138 304.584 242.326 304.388 242.326C304.192 242.326 304.031 242.138 304.031 241.909C304.031 241.679 304.192 241.491 304.388 241.491C304.584 241.491 304.745 241.679 304.745 241.909Z" fill="#000001"/>
<path d="M306.551 238.798C306.551 236.73 304.864 235.053 302.785 235.053C300.706 235.053 299.019 236.73 299.019 238.798V240.19L299.278 240.538C299.278 240.538 299.712 240.538 299.712 240.231V238.624C299.712 238.624 300.58 238.812 302.575 238.624C304.57 238.436 305.501 237.385 305.501 237.385C305.501 237.385 305.193 238.686 305.501 239.18C305.809 239.675 306.187 240.419 306.187 240.419L306.439 241.227L306.551 240.558V238.805V238.798Z" fill="#000001"/>
<path d="M306.551 238.798C306.551 236.73 304.864 235.053 302.785 235.053C300.706 235.053 299.019 236.73 299.019 238.798V240.19L299.278 240.538C299.278 240.538 299.712 240.538 299.712 240.231V238.624C299.712 238.624 300.58 238.812 302.575 238.624C304.57 238.436 305.501 237.385 305.501 237.385C305.501 237.385 305.193 238.686 305.501 239.18C305.809 239.675 306.187 240.419 306.187 240.419L306.439 241.227L306.551 240.558V238.805V238.798Z" stroke="#000001" stroke-linecap="round" stroke-linejoin="round"/>
<path d="M299.586 246.92L298.788 247.894L299.691 253.434L302.701 251.2L305.977 253.344L306.516 247.894L305.732 247.108L302.652 250.038L299.586 246.92Z" fill="white"/>
<path d="M299.586 246.92L298.788 247.894L299.691 253.434L302.701 251.2L305.977 253.344L306.516 247.894L305.732 247.108L302.652 250.038L299.586 246.92Z" stroke="#000001" stroke-linecap="round" stroke-linejoin="round"/>
<path d="M293.447 317.627C293.447 317.627 291.718 322.944 291.977 323.028C292.236 323.111 297.801 323.028 297.801 323.028L297.528 317.627H293.447Z" fill="white"/>
<path d="M293.447 317.627C293.447 317.627 291.718 322.944 291.977 323.028C292.236 323.111 297.801 323.028 297.801 323.028L297.528 317.627H293.447Z" stroke="#000001" stroke-linecap="round" stroke-linejoin="round"/>
<path d="M312.165 317.627C312.165 317.627 313.894 322.944 313.635 323.028C313.376 323.111 307.811 323.028 307.811 323.028L308.084 317.627H312.165Z" fill="white"/>
<path d="M312.165 317.627C312.165 317.627 313.894 322.944 313.635 323.028C313.376 323.111 307.811 323.028 307.811 323.028L308.084 317.627H312.165Z" stroke="#000001" stroke-linecap="round" stroke-linejoin="round"/>
<path d="M315.161 279.36L315.469 283.056C315.469 283.056 313.985 283.717 313.768 283.717C313.551 283.717 313.201 283.154 313.201 283.154C312.669 283.188 312.256 282.708 312.368 282.193L312.991 279.36H315.161Z" fill="white"/>
<path d="M315.161 279.36L315.469 283.056C315.469 283.056 313.985 283.717 313.768 283.717C313.551 283.717 313.201 283.154 313.201 283.154C312.669 283.188 312.256 282.708 312.368 282.193L312.991 279.36H315.161Z" stroke="#000001" stroke-linecap="round" stroke-linejoin="round"/>
<path d="M292.32 250.393L278.432 273.737L279.02 276.771L292.908 260.61L292.32 250.393Z" fill="white"/>
<path d="M292.32 250.393L278.432 273.737L279.02 276.771L292.908 260.61L292.32 250.393Z" stroke="#000001" stroke-linecap="round" stroke-linejoin="round"/>
<path d="M276.591 273.333C276.591 273.333 274.659 275.755 274.764 276.563C274.862 277.37 277.095 280.599 277.2 280.196C277.298 279.792 276.591 273.333 276.591 273.333Z" fill="white"/>
<path d="M276.591 273.333C276.591 273.333 274.659 275.755 274.764 276.563C274.862 277.37 277.095 280.599 277.2 280.196C277.298 279.792 276.591 273.333 276.591 273.333Z" stroke="#000001" stroke-linecap="round" stroke-linejoin="round"/>
<path d="M287.399 245.771H276.983V299.955H287.399V245.771Z" fill="white"/>
<path d="M287.399 245.771H276.983V299.955H287.399V245.771Z" stroke="#000001" stroke-linecap="round" stroke-linejoin="round"/>
<path d="M288.603 226.91L288.694 237.12L282.352 241.261L276.15 236.918L276.64 226.548C273.091 228.525 270.69 232.297 270.69 236.626C270.69 243.008 275.898 248.187 282.317 248.187C288.736 248.187 293.944 243.008 293.944 236.626C293.944 232.548 291.816 228.97 288.61 226.917" fill="white"/>
<path d="M288.603 226.91L288.694 237.12L282.352 241.261L276.15 236.918L276.64 226.548C273.091 228.525 270.69 232.297 270.69 236.626C270.69 243.008 275.898 248.187 282.317 248.187C288.736 248.187 293.944 243.008 293.944 236.626C293.944 232.548 291.816 228.97 288.61 226.917L288.603 226.91Z" stroke="#000001" stroke-linecap="round" stroke-linejoin="round"/>
<path d="M288.806 318.789L288.827 317.905L288.687 308.37L282.345 304.229L276.143 308.579L276.311 318.114L276.339 318.942C272.79 316.965 270.683 313.2 270.683 308.871C270.683 302.489 275.891 297.31 282.31 297.31C288.729 297.31 293.937 302.489 293.937 308.871C293.937 312.949 292.019 316.743 288.813 318.803" fill="white"/>
<path d="M288.806 318.789L288.827 317.905L288.687 308.37L282.345 304.229L276.143 308.579L276.311 318.114L276.339 318.942C272.79 316.965 270.683 313.2 270.683 308.871C270.683 302.489 275.891 297.31 282.31 297.31C288.729 297.31 293.937 302.489 293.937 308.871C293.937 312.949 292.019 316.743 288.813 318.803L288.806 318.789Z" stroke="#000001" stroke-linecap="round" stroke-linejoin="round"/>
<path d="M282.716 290.079H281.666C280.686 290.079 279.888 289.285 279.888 288.311V258.613C279.888 257.638 280.686 256.845 281.666 256.845H282.716C283.696 256.845 284.494 257.638 284.494 258.613V288.311C284.494 289.285 283.696 290.079 282.716 290.079Z" fill="white"/>
<path d="M281.666 256.845H282.716C283.696 256.845 284.494 257.638 284.494 258.613V288.311C284.494 289.285 283.696 290.079 282.716 290.079H281.666C280.686 290.079 279.888 289.285 279.888 288.311V258.613C279.888 257.638 280.686 256.845 281.666 256.845Z" stroke="#000001" stroke-width="0.75" stroke-linecap="round" stroke-linejoin="round"/>
</g>
<path d="M190.071 195.687L189.91 196.411L188.657 207.874L182.567 206.399L180.299 208.967L190.974 212.823L191.534 210.721L190.071 195.687Z" fill="white"/>
<path d="M190.071 195.687L189.91 196.411L188.657 207.874L182.567 206.399L180.299 208.967L190.974 212.823L191.534 210.721L190.071 195.687Z" stroke="#000001" stroke-linecap="round" stroke-linejoin="round"/>
<path d="M207.704 217.159H191.051L190.148 262.239H194.187L199.374 227.975L204.568 262.239H208.607L207.704 217.159Z" fill="#000001"/>
<path d="M207.704 217.159H191.051L190.148 262.239H194.187L199.374 227.975L204.568 262.239H208.607L207.704 217.159Z" stroke="#000001" stroke-linecap="round" stroke-linejoin="round"/>
<path d="M202.349 192.764L199.395 193.384L196.441 192.764L190.071 195.687L191.051 217.159H207.739L208.726 195.687L202.349 192.764Z" fill="white"/>
<path d="M202.349 192.764L199.395 193.384L196.441 192.764L190.071 195.687L191.051 217.159H207.739L208.726 195.687L202.349 192.764Z" stroke="#000001" stroke-linecap="round" stroke-linejoin="round"/>
<path d="M197.554 197.226L198.758 200.19L197.806 212.976L199.332 215.753L201.103 212.851L199.647 200.316L200.914 197.734L199.262 195.332L197.554 197.226Z" fill="#000001"/>
<path d="M197.554 197.226L198.758 200.19L197.806 212.976L199.332 215.753L201.103 212.851L199.647 200.316L200.914 197.734L199.262 195.332L197.554 197.226Z" stroke="#000001" stroke-linecap="round" stroke-linejoin="round"/>
<path d="M196.224 192.242L195.433 193.21L196.322 198.694L199.311 196.481L202.552 198.604L203.091 193.21L202.314 192.437L199.262 195.332L196.224 192.242Z" fill="white"/>
<path d="M196.224 192.242L195.433 193.21L196.322 198.694L199.311 196.481L202.552 198.604L203.091 193.21L202.314 192.437L199.262 195.332L196.224 192.242Z" stroke="#000001" stroke-linecap="round" stroke-linejoin="round"/>
<mask id="mask4_0_740" style="mask-type:luminance" maskUnits="userSpaceOnUse" x="0" y="0" width="350" height="348">
<path d="M350 0H0V348H350V0Z" fill="white"/>
</mask>
<g mask="url(#mask4_0_740)">
<path d="M190.148 262.246C190.148 262.246 188.433 267.507 188.692 267.591C188.944 267.675 194.453 267.591 194.453 267.591L194.187 262.246H190.148Z" fill="white"/>
<path d="M190.148 262.246C190.148 262.246 188.433 267.507 188.692 267.591C188.944 267.675 194.453 267.591 194.453 267.591L194.187 262.246H190.148Z" stroke="#000001" stroke-linecap="round" stroke-linejoin="round"/>
<path d="M208.677 262.246C208.677 262.246 210.392 267.507 210.133 267.591C209.881 267.675 204.372 267.591 204.372 267.591L204.638 262.246H208.677Z" fill="white"/>
<path d="M208.677 262.246C208.677 262.246 210.392 267.507 210.133 267.591C209.881 267.675 204.372 267.591 204.372 267.591L204.638 262.246H208.677Z" stroke="#000001" stroke-linecap="round" stroke-linejoin="round"/>
<path d="M202.265 192.764L199.311 196.481L196.539 192.764V189.416H202.265V192.764Z" fill="#000001"/>
<path d="M202.265 192.764L199.311 196.481L196.539 192.764V189.416H202.265V192.764Z" stroke="#000001" stroke-linecap="round" stroke-linejoin="round"/>
<path d="M195.489 185.929C195.489 185.929 194.81 184.948 194.628 185.804C194.446 186.66 195.664 188.191 195.664 188.191L195.489 185.922V185.929Z" fill="#C0C4C7"/>
<path d="M195.489 185.929C195.489 185.929 194.81 184.948 194.628 185.804C194.446 186.66 195.664 188.191 195.664 188.191L195.489 185.922V185.929Z" stroke="#000001" stroke-linecap="round" stroke-linejoin="round"/>
<path d="M203.224 185.929C203.224 185.929 203.903 184.948 204.085 185.804C204.267 186.66 203.049 188.191 203.049 188.191L203.224 185.922V185.929Z" fill="#C0C4C7"/>
<path d="M203.224 185.929C203.224 185.929 203.903 184.948 204.085 185.804C204.267 186.66 203.049 188.191 203.049 188.191L203.224 185.922V185.929Z" stroke="#000001" stroke-linecap="round" stroke-linejoin="round"/>
<path d="M202.083 191.386L201.488 192.138C201.012 192.743 200.291 193.091 199.521 193.091C198.814 193.091 198.142 192.792 197.666 192.27L196.924 191.449C196.112 190.551 195.664 189.396 195.664 188.191V184.203C195.664 182.157 197.33 180.501 199.388 180.501C201.446 180.501 203.112 182.157 203.112 184.203V188.379C203.112 189.465 202.748 190.523 202.076 191.379" fill="#C0C4C7"/>
<path d="M202.083 191.386L201.488 192.138C201.012 192.743 200.291 193.091 199.521 193.091C198.814 193.091 198.142 192.792 197.666 192.27L196.924 191.449C196.112 190.551 195.664 189.396 195.664 188.191V184.203C195.664 182.157 197.33 180.501 199.388 180.501C201.446 180.501 203.112 182.157 203.112 184.203V188.379C203.112 189.465 202.748 190.523 202.076 191.379L202.083 191.386Z" stroke="#000001" stroke-linecap="round" stroke-linejoin="round"/>
<path d="M198.555 188.553C198.555 188.553 198.296 189.096 198.576 189.319C198.856 189.542 199.612 189.674 200.172 189.5C200.732 189.333 200.417 188.449 200.417 188.449" stroke="#000001" stroke-width="0.5" stroke-linecap="round" stroke-linejoin="round"/>
<path d="M198.555 190.544C198.555 190.544 199.794 190.934 200.522 190.488" stroke="#000001" stroke-width="0.5" stroke-linecap="round" stroke-linejoin="round"/>
<path d="M198.625 185.916C198.625 185.916 197.764 185.463 196.98 186.083" stroke="#000001" stroke-width="0.5" stroke-linecap="round" stroke-linejoin="round"/>
<path d="M200.151 186.048C200.151 186.048 200.879 185.602 201.894 186.27" stroke="#000001" stroke-width="0.5" stroke-linecap="round" stroke-linejoin="round"/>
<path d="M198.303 187.113C198.303 187.342 198.142 187.53 197.946 187.53C197.75 187.53 197.589 187.342 197.589 187.113C197.589 186.883 197.75 186.695 197.946 186.695C198.142 186.695 198.303 186.883 198.303 187.113Z" fill="#000001"/>
<path d="M201.509 187.113C201.509 187.342 201.348 187.53 201.152 187.53C200.956 187.53 200.795 187.342 200.795 187.113C200.795 186.883 200.956 186.695 201.152 186.695C201.348 186.695 201.509 186.883 201.509 187.113Z" fill="#000001"/>
<path d="M150.367 174.919C142.772 182.839 143.066 195.374 151.032 202.933C158.998 210.484 171.612 210.192 179.207 202.271C186.802 194.351 186.508 181.809 178.542 174.257C170.576 166.706 157.969 166.998 150.367 174.919ZM175.994 199.223C170.086 205.376 160.286 205.605 154.091 199.738C147.903 193.864 147.672 184.12 153.573 177.96C159.474 171.808 169.281 171.578 175.469 177.445C181.657 183.312 181.888 193.063 175.987 199.216" fill="#000001"/>
<path d="M150.367 174.919C142.772 182.839 143.066 195.374 151.032 202.933C158.998 210.484 171.612 210.192 179.207 202.271C186.802 194.351 186.508 181.809 178.542 174.257C170.576 166.706 157.969 166.998 150.367 174.919ZM175.994 199.223C170.086 205.376 160.286 205.605 154.091 199.738C147.903 193.864 147.672 184.12 153.573 177.96C159.474 171.808 169.281 171.578 175.469 177.445C181.657 183.312 181.888 193.063 175.987 199.216L175.994 199.223Z" stroke="#000001" stroke-linecap="round" stroke-linejoin="round"/>
<path d="M204.519 226.506C202.923 228.17 200.256 228.163 198.667 226.506L177.359 204.199L180.824 200.587L204.239 220.702C205.982 222.205 206.115 224.85 204.519 226.513" fill="#C0C4C7"/>
<path d="M204.519 226.506C202.923 228.17 200.256 228.163 198.667 226.506L177.359 204.199L180.824 200.587L204.239 220.702C205.982 222.205 206.115 224.85 204.519 226.513V226.506Z" stroke="#000001" stroke-linecap="round" stroke-linejoin="round"/>
<path d="M208.726 195.687L207.032 209.802L194.355 217.479L195.048 219.546L210.651 214.897L212.121 212.37L208.726 195.687Z" fill="white"/>
<path d="M208.726 195.687L207.032 209.802L194.355 217.479L195.048 219.546L210.651 214.897L212.121 212.37L208.726 195.687Z" stroke="#000001" stroke-linecap="round" stroke-linejoin="round"/>
<path d="M194.355 217.479L192.458 217.02C192.458 217.02 190.946 218.182 190.771 218.711C190.596 219.24 191.037 219.762 191.303 219.762C191.303 219.762 192.36 220.994 192.801 220.994C193.242 220.994 195.048 219.546 195.048 219.546L194.355 217.479Z" fill="#C0C4C7"/>
<path d="M194.355 217.479L192.458 217.02C192.458 217.02 190.946 218.182 190.771 218.711C190.596 219.24 191.037 219.762 191.303 219.762C191.303 219.762 192.36 220.994 192.801 220.994C193.242 220.994 195.048 219.546 195.048 219.546L194.355 217.479Z" stroke="#000001" stroke-linecap="round" stroke-linejoin="round"/>
<path d="M179.342 205.089L177.817 206.805L180.304 208.989L181.829 207.273L179.342 205.089Z" fill="#C0C4C7"/>
<path d="M179.342 205.089L177.817 206.805L180.304 208.989L181.829 207.273L179.342 205.089Z" stroke="#000001" stroke-linecap="round" stroke-linejoin="round"/>
</g>
<path d="M291.494 115.793H248.521V163.838H291.494V115.793Z" fill="white"/>
<path d="M291.494 115.793H248.521V163.838H291.494V115.793Z" stroke="#000001" stroke-linecap="round" stroke-linejoin="round"/>
<path d="M291.494 115.793H248.521V119.246H291.494V115.793Z" fill="#000001"/>
<path d="M291.494 115.793H248.521V119.246H291.494V115.793Z" stroke="#000001" stroke-linecap="round" stroke-linejoin="round"/>
<path d="M253.764 122.503H263.501" stroke="#000001" stroke-linecap="round" stroke-linejoin="round"/>
<path d="M256.438 125.155H262.717" stroke="#000001" stroke-linecap="round" stroke-linejoin="round"/>
<path d="M253.764 149.8H263.501" stroke="#000001" stroke-linecap="round" stroke-linejoin="round"/>
<path d="M256.438 152.452H262.717" stroke="#000001" stroke-linecap="round" stroke-linejoin="round"/>
<path d="M259.266 154.95H270.879" stroke="#000001" stroke-linecap="round" stroke-linejoin="round"/>
<path d="M259.266 157.449H270.879" stroke="#000001" stroke-linecap="round" stroke-linejoin="round"/>
<path d="M259.266 159.941H270.879" stroke="#000001" stroke-linecap="round" stroke-linejoin="round"/>
<path d="M283.584 127.96H287.511" stroke="#000001" stroke-linecap="round" stroke-linejoin="round"/>
<path d="M274.953 127.96H281.078" stroke="#000001" stroke-linecap="round" stroke-linejoin="round"/>
<path d="M264.754 127.96H272.447" stroke="#000001" stroke-linecap="round" stroke-linejoin="round"/>
<path d="M261.618 127.96H263.501" stroke="#000001" stroke-linecap="round" stroke-linejoin="round"/>
<path d="M265.538 130.298H261.618" stroke="#000001" stroke-linecap="round" stroke-linejoin="round"/>
<path d="M274.169 130.298H268.051" stroke="#000001" stroke-linecap="round" stroke-linejoin="round"/>
<path d="M284.368 130.298H276.682" stroke="#000001" stroke-linecap="round" stroke-linejoin="round"/>
<path d="M287.511 130.298H285.628" stroke="#000001" stroke-linecap="round" stroke-linejoin="round"/>
<path d="M283.584 132.797H287.511" stroke="#000001" stroke-linecap="round" stroke-linejoin="round"/>
<path d="M274.953 132.797H281.078" stroke="#000001" stroke-linecap="round" stroke-linejoin="round"/>
<path d="M264.754 132.797H272.447" stroke="#000001" stroke-linecap="round" stroke-linejoin="round"/>
<path d="M261.618 132.797H263.501" stroke="#000001" stroke-linecap="round" stroke-linejoin="round"/>
<path d="M265.538 135.135H261.618" stroke="#000001" stroke-linecap="round" stroke-linejoin="round"/>
<path d="M274.169 135.135H268.051" stroke="#000001" stroke-linecap="round" stroke-linejoin="round"/>
<path d="M284.368 135.135H276.682" stroke="#000001" stroke-linecap="round" stroke-linejoin="round"/>
<path d="M287.511 135.135H285.628" stroke="#000001" stroke-linecap="round" stroke-linejoin="round"/>
<path d="M283.584 137.321H287.511" stroke="#000001" stroke-linecap="round" stroke-linejoin="round"/>
<path d="M274.953 137.321H281.078" stroke="#000001" stroke-linecap="round" stroke-linejoin="round"/>
<path d="M264.754 137.321H272.447" stroke="#000001" stroke-linecap="round" stroke-linejoin="round"/>
<path d="M261.618 137.321H263.501" stroke="#000001" stroke-linecap="round" stroke-linejoin="round"/>
<path d="M265.538 139.659H261.618" stroke="#000001" stroke-linecap="round" stroke-linejoin="round"/>
<path d="M274.169 139.659H268.051" stroke="#000001" stroke-linecap="round" stroke-linejoin="round"/>
<path d="M284.368 139.659H276.682" stroke="#000001" stroke-linecap="round" stroke-linejoin="round"/>
<path d="M287.511 139.659H285.628" stroke="#000001" stroke-linecap="round" stroke-linejoin="round"/>
<path d="M283.584 142.158H287.511" stroke="#000001" stroke-linecap="round" stroke-linejoin="round"/>
<path d="M274.953 142.158H281.078" stroke="#000001" stroke-linecap="round" stroke-linejoin="round"/>
<path d="M264.754 142.158H272.447" stroke="#000001" stroke-linecap="round" stroke-linejoin="round"/>
<path d="M261.618 142.158H263.501" stroke="#000001" stroke-linecap="round" stroke-linejoin="round"/>
<path d="M265.538 144.497H261.618" stroke="#000001" stroke-linecap="round" stroke-linejoin="round"/>
<path d="M274.169 144.497H268.051" stroke="#000001" stroke-linecap="round" stroke-linejoin="round"/>
<path d="M284.368 144.497H276.682" stroke="#000001" stroke-linecap="round" stroke-linejoin="round"/>
<path d="M287.511 144.497H285.628" stroke="#000001" stroke-linecap="round" stroke-linejoin="round"/>
<path d="M249.34 161.904H232.624L231.721 207.151H235.774L240.982 172.754L246.197 207.151H250.25L249.34 161.904Z" fill="#000001"/>
<path d="M249.34 161.904H232.624L231.721 207.151H235.774L240.982 172.754L246.197 207.151H250.25L249.34 161.904Z" stroke="#000001" stroke-linecap="round" stroke-linejoin="round"/>
<path d="M243.964 137.418L241.003 135.887L238.042 137.418L230.601 140.348L232.624 161.904H249.375L251.405 140.348L243.964 137.418Z" fill="white"/>
<path d="M243.964 137.418L241.003 135.887L238.042 137.418L230.601 140.348L232.624 161.904H249.375L251.405 140.348L243.964 137.418Z" stroke="#000001" stroke-linecap="round" stroke-linejoin="round"/>
<mask id="mask5_0_740" style="mask-type:luminance" maskUnits="userSpaceOnUse" x="0" y="0" width="350" height="348">
<path d="M350 0H0V348H350V0Z" fill="white"/>
</mask>
<g mask="url(#mask5_0_740)">
<path d="M237.083 130.556C237.083 130.556 236.404 129.574 236.215 130.43C236.033 131.293 237.258 132.825 237.258 132.825L237.083 130.549V130.556Z" fill="white"/>
<path d="M237.083 130.556C237.083 130.556 236.404 129.574 236.215 130.43C236.033 131.293 237.258 132.825 237.258 132.825L237.083 130.549V130.556Z" stroke="#000001" stroke-linecap="round" stroke-linejoin="round"/>
<path d="M244.846 130.556C244.846 130.556 245.525 129.574 245.714 130.43C245.896 131.293 244.671 132.825 244.671 132.825L244.846 130.549V130.556Z" fill="white"/>
<path d="M244.846 130.556C244.846 130.556 245.525 129.574 245.714 130.43C245.896 131.293 244.671 132.825 244.671 132.825L244.846 130.549V130.556Z" stroke="#000001" stroke-linecap="round" stroke-linejoin="round"/>
<path d="M244.741 128.823C244.741 126.769 243.068 125.106 241.003 125.106C238.938 125.106 237.265 126.769 237.265 128.823V132.825C237.265 133.82 237.58 134.787 238.14 135.602V137.418L240.926 137.001L243.894 137.418V135.769C244.447 134.961 244.748 134.001 244.748 133.019V128.823H244.741Z" fill="white"/>
<path d="M244.741 128.823C244.741 126.769 243.068 125.106 241.003 125.106C238.938 125.106 237.265 126.769 237.265 128.823V132.825C237.265 133.82 237.58 134.787 238.14 135.602V137.418L240.926 137.001L243.894 137.418V135.769C244.447 134.961 244.748 134.001 244.748 133.019V128.823H244.741Z" stroke="#000001" stroke-linecap="round" stroke-linejoin="round"/>
<path d="M231.721 207.15C231.721 207.15 229.999 212.433 230.258 212.517C230.51 212.6 236.04 212.517 236.04 212.517L235.774 207.15H231.721Z" fill="white"/>
<path d="M231.721 207.15C231.721 207.15 229.999 212.433 230.258 212.517C230.51 212.6 236.04 212.517 236.04 212.517L235.774 207.15H231.721Z" stroke="#000001" stroke-linecap="round" stroke-linejoin="round"/>
<path d="M250.32 207.15C250.32 207.15 252.042 212.433 251.783 212.517C251.531 212.6 246.001 212.517 246.001 212.517L246.274 207.15H250.327H250.32Z" fill="white"/>
<path d="M250.32 207.15C250.32 207.15 252.042 212.433 251.783 212.517C251.531 212.6 246.001 212.517 246.001 212.517L246.274 207.15H250.327H250.32Z" stroke="#000001" stroke-linecap="round" stroke-linejoin="round"/>
<path d="M236.11 138.107L238.21 135.894L243.474 135.831L245.693 138.038C245.693 138.038 239.267 137.745 236.11 138.107Z" fill="white"/>
<path d="M236.11 138.107L238.21 135.894L243.474 135.831L245.693 138.038C245.693 138.038 239.267 137.745 236.11 138.107Z" stroke="#000001" stroke-linecap="round" stroke-linejoin="round"/>
<path d="M241.003 125.106C238.938 125.106 237.265 126.769 237.265 128.823V132.825C237.265 132.978 237.286 133.131 237.3 133.277L238.819 135.24H243.068L244.741 133.013V128.816C244.741 126.762 243.068 125.099 241.003 125.099" fill="#000001"/>
<path d="M241.003 125.106C238.938 125.106 237.265 126.769 237.265 128.823V132.825C237.265 132.978 237.286 133.131 237.3 133.277L238.819 135.24H243.068L244.741 133.013V128.816C244.741 126.762 243.068 125.099 241.003 125.099V125.106Z" stroke="#000001" stroke-linecap="round" stroke-linejoin="round"/>
<path d="M230.601 140.348C230.601 140.348 222.621 153.426 222.376 153.788C222.131 154.15 229.719 162.606 229.719 162.606L230.447 160.031L228.515 153.071L231.406 150.078L230.594 140.355L230.601 140.348Z" fill="white"/>
<path d="M230.601 140.348C230.601 140.348 222.621 153.426 222.376 153.788C222.131 154.15 229.719 162.606 229.719 162.606L230.447 160.031L228.515 153.071L231.406 150.078L230.594 140.355L230.601 140.348Z" stroke="#000001" stroke-linecap="round" stroke-linejoin="round"/>
<path d="M230.447 160.031L233.1 161.973L231.889 165.23L230.349 164.959L230.3 164.333L229.712 162.606L230.447 160.031Z" fill="white"/>
<path d="M230.447 160.031L233.1 161.973L231.889 165.23L230.349 164.959L230.3 164.333L229.712 162.606L230.447 160.031Z" stroke="#000001" stroke-linecap="round" stroke-linejoin="round"/>
<path d="M251.405 140.348L255.703 144.281L260.736 135.838L263.697 136.715L257.187 153.851L250.551 149.772L251.405 140.348Z" fill="white"/>
<path d="M251.405 140.348L255.703 144.281L260.736 135.838L263.697 136.715L257.187 153.851L250.551 149.772L251.405 140.348Z" stroke="#000001" stroke-linecap="round" stroke-linejoin="round"/>
<path d="M260.736 135.831L261.919 132.449L265.027 129.505L265.769 130.465L264.453 132.358L265.769 133.374L265.692 135.191L263.697 136.715L260.736 135.831Z" fill="white"/>
<path d="M260.736 135.831L261.919 132.449L265.027 129.505L265.769 130.465L264.453 132.358L265.769 133.374L265.692 135.191L263.697 136.715L260.736 135.831Z" stroke="#000001" stroke-linecap="round" stroke-linejoin="round"/>
<path d="M277.823 187.127L280.777 187.53L281.491 184.433L278.747 183.556C278.747 183.556 278.747 183.542 278.747 183.528C278.747 182.498 278.537 181.51 278.152 180.612L280.217 178.656L278.222 176.172L275.926 177.689C275.114 177.042 274.169 176.561 273.14 176.29L272.902 173.562H269.71L269.472 176.255C268.429 176.506 267.463 176.972 266.644 177.598L264.334 176.074L262.346 178.559L264.369 180.473C263.963 181.378 263.732 182.373 263.718 183.424L260.974 184.301L261.681 187.398L264.579 187.001C265.034 187.864 265.657 188.63 266.406 189.256L265.342 192.054L268.219 193.432L269.759 190.857C270.235 190.955 270.732 191.003 271.236 191.003C271.705 191.003 272.16 190.962 272.601 190.878L274.162 193.488L277.039 192.11L275.982 189.326C276.731 188.72 277.361 187.969 277.83 187.12M267.162 183.528C267.162 181.294 268.982 179.478 271.236 179.478C273.49 179.478 275.31 181.287 275.31 183.528C275.31 185.769 273.483 187.579 271.236 187.579C268.989 187.579 267.162 185.769 267.162 183.528Z" fill="#000001"/>
<path d="M296.842 182.512L299.796 182.916L300.51 179.819L297.766 178.942C297.766 178.942 297.766 178.928 297.766 178.914C297.766 177.884 297.556 176.895 297.171 175.997L299.236 174.042L297.241 171.557L294.945 173.074C294.133 172.427 293.188 171.947 292.159 171.675L291.921 168.947H288.729L288.491 171.634C287.448 171.884 286.482 172.35 285.663 172.977L283.353 171.453L281.358 173.937L283.381 175.851C282.975 176.756 282.744 177.751 282.73 178.802L279.986 179.679L280.7 182.777L283.591 182.38C284.046 183.243 284.669 184.008 285.418 184.635L284.354 187.433L287.231 188.811L288.771 186.236C289.247 186.333 289.744 186.382 290.248 186.382C290.717 186.382 291.172 186.34 291.613 186.257L293.174 188.867L296.051 187.488L294.994 184.704C295.743 184.099 296.373 183.347 296.842 182.498M286.174 178.907C286.174 176.673 287.994 174.856 290.248 174.856C292.502 174.856 294.322 176.666 294.322 178.907C294.322 181.148 292.495 182.957 290.248 182.957C288.001 182.957 286.174 181.148 286.174 178.907Z" fill="#000001"/>
</g>
<path d="M221.634 100.906V156.621H169.113" stroke="#000001" stroke-width="2" stroke-linecap="round" stroke-linejoin="round"/>
<path d="M184.863 111.381V156.621" stroke="#000001" stroke-width="2" stroke-linecap="round" stroke-linejoin="round"/>
<path d="M207.963 116.141L221.074 131.69H184.877L173.481 116.141" stroke="#000001" stroke-width="2" stroke-linecap="round" stroke-linejoin="round"/>
<path d="M167.776 121.215H213.822L230.468 91.3917H184.429L167.776 121.215Z" fill="#C0C4C7"/>
<path d="M167.776 121.215H213.822L230.468 91.3917H184.429L167.776 121.215Z" stroke="#000001" stroke-linecap="round" stroke-linejoin="round"/>
<path d="M186.858 94.997L176.316 114.353H210.462L221.347 94.6769L186.858 94.997Z" fill="white"/>
<path d="M186.858 94.997L176.316 114.353H210.462L221.347 94.6769L186.858 94.997Z" stroke="#000001" stroke-linecap="round" stroke-linejoin="round"/>
<path d="M179.004 110.219H198.198L195.314 114.234" fill="white"/>
<path d="M179.004 110.219H198.198L195.314 114.234" stroke="#000001" stroke-linecap="round" stroke-linejoin="round"/>
<path d="M167.776 121.215L166.523 119.67H211.918L213.822 121.215H167.776Z" fill="white"/>
<path d="M167.776 121.215L166.523 119.67H211.918L213.822 121.215H167.776Z" stroke="#000001" stroke-linecap="round" stroke-linejoin="round"/>
<path d="M143.731 85.0303L143.577 85.7541L141.302 96.3124L137.193 95.6512L137.41 98.1916L144.634 102.173L145.194 100.071L143.731 85.0303Z" fill="white"/>
<path d="M143.731 85.0303L143.577 85.7541L141.302 96.3124L137.193 95.6512L137.41 98.1916L144.634 102.173L145.194 100.071L143.731 85.0303Z" stroke="#000001" stroke-linecap="round" stroke-linejoin="round"/>
<path d="M162.386 85.0303L165.746 97.085H169.197L168.196 99.9595L161.525 100.843L162.386 85.0303Z" fill="white"/>
<path d="M162.386 85.0303L165.746 97.085H169.197L168.196 99.9595L161.525 100.843L162.386 85.0303Z" stroke="#000001" stroke-linecap="round" stroke-linejoin="round"/>
<path d="M161.364 106.509H144.711L143.808 151.589H147.847L153.034 117.318L158.228 151.589H162.267L161.364 106.509Z" fill="#000001"/>
<path d="M161.364 106.509H144.711L143.808 151.589H147.847L153.034 117.318L158.228 151.589H162.267L161.364 106.509Z" stroke="#000001" stroke-linecap="round" stroke-linejoin="round"/>
<path d="M156.009 82.1141L153.055 82.7336L150.101 82.1141L143.731 85.0304L144.711 106.509H161.399L162.386 85.0304L156.009 82.1141Z" fill="white"/>
<path d="M156.009 82.1141L153.055 82.7336L150.101 82.1141L143.731 85.0304L144.711 106.509H161.399L162.386 85.0304L156.009 82.1141Z" stroke="#000001" stroke-linecap="round" stroke-linejoin="round"/>
<path d="M151.214 86.5755L152.418 89.5405L151.466 102.326L152.992 105.103L154.77 102.201L153.307 89.6657L154.574 87.0766L152.922 84.6824L151.214 86.5755Z" fill="#000001"/>
<path d="M151.214 86.5755L152.418 89.5404L151.466 102.326L152.992 105.103L154.77 102.201L153.307 89.6657L154.574 87.0766L152.922 84.6824L151.214 86.5755Z" stroke="#000001" stroke-linecap="round" stroke-linejoin="round"/>
<path d="M149.884 81.592L149.093 82.5595L149.982 88.044L152.971 85.8307L156.212 87.9535L156.751 82.5595L155.974 81.78L152.922 84.6823L149.884 81.592Z" fill="white"/>
<path d="M149.884 81.592L149.093 82.5595L149.982 88.044L152.971 85.8307L156.212 87.9535L156.751 82.5595L155.974 81.78L152.922 84.6823L149.884 81.592Z" stroke="#000001" stroke-linecap="round" stroke-linejoin="round"/>
<mask id="mask6_0_740" style="mask-type:luminance" maskUnits="userSpaceOnUse" x="0" y="0" width="350" height="348">
<path d="M350 0H0V348H350V0Z" fill="white"/>
</mask>
<g mask="url(#mask6_0_740)">
<path d="M143.808 151.589C143.808 151.589 142.093 156.851 142.352 156.934C142.604 157.018 148.113 156.934 148.113 156.934L147.847 151.589H143.808Z" fill="white"/>
<path d="M143.808 151.589C143.808 151.589 142.093 156.851 142.352 156.934C142.604 157.018 148.113 156.934 148.113 156.934L147.847 151.589H143.808Z" stroke="#000001" stroke-linecap="round" stroke-linejoin="round"/>
<path d="M162.337 151.589C162.337 151.589 164.052 156.851 163.793 156.934C163.534 157.018 158.032 156.934 158.032 156.934L158.298 151.589H162.337Z" fill="white"/>
<path d="M162.337 151.589C162.337 151.589 164.052 156.851 163.793 156.934C163.534 157.018 158.032 156.934 158.032 156.934L158.298 151.589H162.337Z" stroke="#000001" stroke-linecap="round" stroke-linejoin="round"/>
<path d="M155.925 82.1141L152.971 85.8308L150.199 82.1141V78.7664H155.925V82.1141Z" fill="#000001"/>
<path d="M155.925 82.1141L152.971 85.8308L150.199 82.1141V78.7664H155.925V82.1141Z" stroke="#000001" stroke-linecap="round" stroke-linejoin="round"/>
<path d="M149.149 75.2724C149.149 75.2724 148.47 74.2911 148.288 75.1471C148.106 76.0032 149.324 77.5344 149.324 77.5344L149.149 75.2655V75.2724Z" fill="#C0C4C7"/>
<path d="M149.149 75.2724C149.149 75.2724 148.47 74.2911 148.288 75.1471C148.106 76.0032 149.324 77.5344 149.324 77.5344L149.149 75.2655V75.2724Z" stroke="#000001" stroke-linecap="round" stroke-linejoin="round"/>
<path d="M156.884 75.2724C156.884 75.2724 157.563 74.2911 157.745 75.1471C157.927 76.0032 156.709 77.5344 156.709 77.5344L156.884 75.2655V75.2724Z" fill="#C0C4C7"/>
<path d="M156.884 75.2724C156.884 75.2724 157.563 74.2911 157.745 75.1471C157.927 76.0032 156.709 77.5344 156.709 77.5344L156.884 75.2655V75.2724Z" stroke="#000001" stroke-linecap="round" stroke-linejoin="round"/>
<path d="M155.743 80.7291L155.148 81.4807C154.672 82.0863 153.951 82.4343 153.181 82.4343C152.474 82.4343 151.802 82.135 151.326 81.613L150.584 80.7987C149.772 79.9078 149.324 78.7455 149.324 77.5414V73.5533C149.324 71.5071 150.99 69.8506 153.048 69.8506C155.106 69.8506 156.772 71.5071 156.772 73.5533V77.7363C156.772 78.822 156.408 79.8799 155.736 80.736" fill="#C0C4C7"/>
<path d="M155.743 80.7291L155.148 81.4807C154.672 82.0863 153.951 82.4343 153.181 82.4343C152.474 82.4343 151.802 82.135 151.326 81.613L150.584 80.7987C149.772 79.9078 149.324 78.7455 149.324 77.5414V73.5533C149.324 71.5071 150.99 69.8506 153.048 69.8506C155.106 69.8506 156.772 71.5071 156.772 73.5533V77.7363C156.772 78.822 156.408 79.8799 155.736 80.736L155.743 80.7291Z" stroke="#000001" stroke-linecap="round" stroke-linejoin="round"/>
<path d="M150.899 77.0472C150.899 77.0472 151.515 77.5344 152.243 77.089" stroke="#000001" stroke-width="0.5" stroke-linecap="round" stroke-linejoin="round"/>
<path d="M153.965 77.1307C153.965 77.1307 154.455 77.5831 155.19 77.1307" stroke="#000001" stroke-width="0.5" stroke-linecap="round" stroke-linejoin="round"/>
<path d="M152.215 78.641C152.215 78.641 151.956 79.1839 152.236 79.4066C152.516 79.6293 153.272 79.7616 153.832 79.5945C154.392 79.4275 154.077 78.5436 154.077 78.5436" stroke="#000001" stroke-width="0.5" stroke-linecap="round" stroke-linejoin="round"/>
<path d="M152.215 80.4855C152.215 80.4855 153.447 80.8752 154.182 80.4298" stroke="#000001" stroke-width="0.5" stroke-linecap="round" stroke-linejoin="round"/>
<path d="M152.285 76.212C152.285 76.212 151.424 75.7596 150.64 76.3791" stroke="#000001" stroke-width="0.5" stroke-linecap="round" stroke-linejoin="round"/>
<path d="M153.811 76.3443C153.811 76.3443 154.539 75.8989 155.554 76.567" stroke="#000001" stroke-width="0.5" stroke-linecap="round" stroke-linejoin="round"/>
<path d="M153.055 69.8506C150.997 69.8506 149.331 71.5071 149.331 73.5533V75.2724H149.961V73.3027L151.578 71.862L153.195 72.1474L154.812 71.862L156.429 73.3027V75.2724H156.786V73.5533C156.786 71.5071 155.12 69.8506 153.062 69.8506" fill="#000001"/>
<path d="M153.055 69.8506C150.997 69.8506 149.331 71.5071 149.331 73.5533V75.2724H149.961V73.3027L151.578 71.862L153.195 72.1474L154.812 71.862L156.429 73.3027V75.2724H156.786V73.5533C156.786 71.5071 155.12 69.8506 153.062 69.8506H153.055Z" stroke="#000001" stroke-linecap="round" stroke-linejoin="round"/>
<path d="M135.786 88.7957C135.786 88.7957 145.719 93.3823 151.214 94.2593C156.709 95.1432 171.43 89.6726 171.43 89.6726L167.531 106.954C167.531 106.954 156.891 108.715 151.746 109.07C146.601 109.425 136.85 105.896 136.85 105.896C136.85 105.896 136.675 91.6145 135.786 88.7887" fill="white"/>
<path d="M135.786 88.7957C135.786 88.7957 145.719 93.3823 151.214 94.2593C156.709 95.1432 171.43 89.6726 171.43 89.6726L167.531 106.954C167.531 106.954 156.891 108.715 151.746 109.07C146.601 109.425 136.85 105.896 136.85 105.896C136.85 105.896 136.675 91.6145 135.786 88.7887V88.7957Z" stroke="#000001" stroke-linecap="round" stroke-linejoin="round"/>
<path d="M153.384 97.0155L152.635 107.379" stroke="#000001" stroke-width="0.5" stroke-linecap="round" stroke-linejoin="round"/>
<path d="M169.015 95.3521C169.015 95.3521 166.782 97.9412 163.989 101.275" stroke="#000001" stroke-width="0.5" stroke-linecap="round" stroke-linejoin="round"/>
<path d="M137.193 95.6512C137.193 95.6512 140.546 98.129 142.03 101.275" stroke="#000001" stroke-width="0.5" stroke-linecap="round" stroke-linejoin="round"/>
<path d="M170.198 95.6512C170.198 95.6512 171.087 95.874 171.087 96.6465C171.087 97.4191 170.975 99.6324 170.086 99.9595C169.197 100.294 168.756 100.182 168.973 98.6371C169.197 97.092 168.749 95.9853 170.198 95.6512Z" fill="#C0C4C7"/>
<path d="M170.198 95.6512C170.198 95.6512 171.087 95.874 171.087 96.6465C171.087 97.4191 170.975 99.6324 170.086 99.9595C169.197 100.294 168.756 100.182 168.973 98.6371C169.197 97.092 168.749 95.9853 170.198 95.6512Z" stroke="#000001" stroke-linecap="round" stroke-linejoin="round"/>
<path d="M136.192 95.6512C136.192 95.6512 135.303 95.874 135.303 96.6465C135.303 97.4191 135.415 99.6324 136.304 99.9595C137.193 100.294 137.634 100.182 137.417 98.6371C137.193 97.092 137.641 95.9853 136.192 95.6512Z" fill="#C0C4C7"/>
<path d="M136.192 95.6512C136.192 95.6512 135.303 95.874 135.303 96.6465C135.303 97.4191 135.415 99.6324 136.304 99.9595C137.193 100.294 137.634 100.182 137.417 98.6371C137.193 97.092 137.641 95.9853 136.192 95.6512Z" stroke="#000001" stroke-linecap="round" stroke-linejoin="round"/>
</g>
<path d="M109.676 27.339C109.676 29.6497 111.559 31.5219 113.883 31.5219C116.207 31.5219 118.09 29.6497 118.09 27.339C118.09 25.0282 116.207 23.156 113.883 23.156C111.559 23.156 109.676 25.0282 109.676 27.339Z" fill="#000001"/>
<path d="M117.469 29.5407C118.69 27.5756 118.078 24.9979 116.102 23.7833C114.126 22.5687 111.533 23.1771 110.312 25.1422C109.09 27.1073 109.702 29.685 111.678 30.8996C113.655 32.1142 116.247 31.5058 117.469 29.5407Z" stroke="#000001" stroke-linecap="round" stroke-linejoin="round"/>
<path d="M121.548 70.0595L121.338 77.5832L121.135 96.9529H118.174L116.081 77.792L115.556 69.9551L121.548 70.0595Z" fill="white"/>
<path d="M121.548 70.0595L121.338 77.5832L121.135 96.9529H118.174L116.081 77.792L115.556 69.9551L121.548 70.0595Z" stroke="#000001" stroke-linecap="round" stroke-linejoin="round"/>
<path d="M121.135 96.9459C121.135 96.9459 122.388 102.138 122.206 102.222C122.017 102.305 117.978 102.222 117.978 102.222L118.174 96.9459H121.135Z" fill="white"/>
<path d="M121.135 96.9459C121.135 96.9459 122.388 102.138 122.206 102.222C122.017 102.305 117.978 102.222 117.978 102.222L118.174 96.9459H121.135Z" stroke="#000001" stroke-linecap="round" stroke-linejoin="round"/>
<path d="M122.206 102.222C122.017 102.305 117.978 102.222 117.978 102.222L118.048 100.266H121.891C122.115 101.303 122.276 102.187 122.199 102.222" fill="#000001"/>
<path d="M122.206 102.222C122.017 102.305 117.978 102.222 117.978 102.222L118.048 100.266H121.891C122.115 101.303 122.276 102.187 122.199 102.222H122.206Z" stroke="#000001" stroke-linecap="round" stroke-linejoin="round"/>
<path d="M106.099 70.0595L106.309 77.5832L106.512 96.9529H109.473L111.566 77.792L112.091 69.9551L106.099 70.0595Z" fill="white"/>
<path d="M106.099 70.0595L106.309 77.5832L106.512 96.9529H109.473L111.566 77.792L112.091 69.9551L106.099 70.0595Z" stroke="#000001" stroke-linecap="round" stroke-linejoin="round"/>
<path d="M106.512 96.9459C106.512 96.9459 105.259 102.138 105.441 102.222C105.63 102.305 109.669 102.222 109.669 102.222L109.473 96.9459H106.512Z" fill="white"/>
<path d="M106.512 96.9459C106.512 96.9459 105.259 102.138 105.441 102.222C105.63 102.305 109.669 102.222 109.669 102.222L109.473 96.9459H106.512Z" stroke="#000001" stroke-linecap="round" stroke-linejoin="round"/>
<path d="M105.448 102.222C105.637 102.305 109.676 102.222 109.676 102.222L109.606 100.266H105.763C105.539 101.303 105.378 102.187 105.455 102.222" fill="#000001"/>
<path d="M105.448 102.222C105.637 102.305 109.676 102.222 109.676 102.222L109.606 100.266H105.763C105.539 101.303 105.378 102.187 105.455 102.222H105.448Z" stroke="#000001" stroke-linecap="round" stroke-linejoin="round"/>
<path d="M107.716 43.1939L104.685 32.8931L110.978 30.0116L113.89 29.0164L116.802 30.0116L123.088 32.8931L120.071 43.1591L120.169 44.8504L122.101 50.314C122.444 51.2814 122.619 52.2976 122.619 53.3207V58.5964L113.946 60.8723L105.273 58.5964V53.3207C105.273 52.2976 105.448 51.2814 105.791 50.314L107.723 44.8504V43.1939H107.716Z" fill="white"/>
<path d="M107.716 43.1939L104.685 32.8931L110.978 30.0116L113.89 29.0164L116.802 30.0116L123.088 32.8931L120.071 43.1591L120.169 44.8504L122.101 50.314C122.444 51.2814 122.619 52.2976 122.619 53.3207V58.5964L113.946 60.8723L105.273 58.5964V53.3207C105.273 52.2976 105.448 51.2814 105.791 50.314L107.723 44.8504V43.1939H107.716Z" stroke="#000001" stroke-linecap="round" stroke-linejoin="round"/>
<path d="M109.977 30.4779L110.985 30.0185L111.076 30.0394L111.062 30.0185L111.72 25.1047H116.2L116.711 30.0185L116.655 30.0951L117.033 30.1159L117.656 30.4013L118.251 34.8557H109.508L109.977 30.4779Z" fill="white"/>
<path d="M109.977 30.4779L110.985 30.0185L111.076 30.0394L111.062 30.0185L111.72 25.1047H116.2L116.711 30.0185L116.655 30.0951L117.033 30.1159L117.656 30.4013L118.251 34.8557H109.508L109.977 30.4779Z" stroke="#000001" stroke-linecap="round" stroke-linejoin="round"/>
<path d="M117.747 21.6665C117.747 21.6665 118.412 20.6991 118.594 21.5482C118.776 22.3973 117.572 23.9076 117.572 23.9076L117.747 21.6735V21.6665Z" fill="#C0C4C7"/>
<path d="M117.747 21.6665C117.747 21.6665 118.412 20.6991 118.594 21.5482C118.776 22.3973 117.572 23.9076 117.572 23.9076L117.747 21.6735V21.6665Z" stroke="#000001" stroke-linecap="round" stroke-linejoin="round"/>
<path d="M110.117 21.6665C110.117 21.6665 109.445 20.6991 109.263 21.5482C109.081 22.3973 110.285 23.9076 110.285 23.9076L110.11 21.6735L110.117 21.6665Z" fill="#C0C4C7"/>
<path d="M110.117 21.6665C110.117 21.6665 109.445 20.6991 109.263 21.5482C109.081 22.3973 110.285 23.9076 110.285 23.9076L110.11 21.6735L110.117 21.6665Z" stroke="#000001" stroke-linecap="round" stroke-linejoin="round"/>
<path d="M111.244 27.0467L111.825 27.7914C112.294 28.383 113.008 28.731 113.764 28.731C114.464 28.731 115.129 28.4386 115.598 27.9236L116.326 27.1163C117.124 26.2323 117.565 25.0909 117.565 23.9007V19.9683C117.565 17.9499 115.92 16.3143 113.89 16.3143C111.86 16.3143 110.215 17.9499 110.215 19.9683V24.0887C110.215 25.1605 110.579 26.2045 111.237 27.0467" fill="white"/>
<path d="M111.244 27.0467L111.825 27.7914C112.294 28.383 113.008 28.731 113.764 28.731C114.464 28.731 115.129 28.4386 115.598 27.9236L116.326 27.1162C117.124 26.2323 117.565 25.0909 117.565 23.9007V19.9683C117.565 17.9499 115.92 16.3143 113.89 16.3143C111.86 16.3143 110.215 17.9499 110.215 19.9683V24.0887C110.215 25.1605 110.579 26.2045 111.237 27.0467H111.244Z" stroke="#000001" stroke-linecap="round" stroke-linejoin="round"/>
<path d="M112.784 25.7869C112.784 25.7869 113.869 26.3993 114.821 25.7869H112.784Z" fill="white"/>
<path d="M112.784 25.7869C112.784 25.7869 113.869 26.3993 114.821 25.7869" stroke="#000001" stroke-width="0.5" stroke-linecap="round" stroke-linejoin="round"/>
<path d="M114.205 23.9495C114.205 23.9495 114.296 24.7986 114.016 24.8403C113.729 24.8891 113.4 24.3671 113.4 24.3671" fill="white"/>
<path d="M114.205 23.9495C114.205 23.9495 114.296 24.7986 114.016 24.8403C113.729 24.8891 113.4 24.3671 113.4 24.3671" stroke="#000001" stroke-width="0.5" stroke-linecap="round" stroke-linejoin="round"/>
<path d="M111.65 23.1003C111.65 23.1003 112.315 23.7128 113.211 23.1491L111.65 23.1003Z" fill="white"/>
<path d="M111.65 23.1003C111.65 23.1003 112.315 23.7128 113.211 23.1491" stroke="#000001" stroke-width="0.5" stroke-linecap="round" stroke-linejoin="round"/>
<path d="M114.632 23.1003C114.632 23.1003 115.297 23.7128 116.193 23.1491L114.632 23.1003Z" fill="white"/>
<path d="M114.632 23.1003C114.632 23.1003 115.297 23.7128 116.193 23.1491" stroke="#000001" stroke-width="0.5" stroke-linecap="round" stroke-linejoin="round"/>
<path d="M113.309 22.4948C113.309 22.4948 112.364 21.7919 111.181 22.3069L113.309 22.4948Z" fill="white"/>
<path d="M113.309 22.4948C113.309 22.4948 112.364 21.7919 111.181 22.3069" stroke="#000001" stroke-width="0.5" stroke-linecap="round" stroke-linejoin="round"/>
<path d="M114.583 22.446C114.583 22.446 115.388 22.0215 116.431 22.4948L114.583 22.446Z" fill="white"/>
<path d="M114.583 22.446C114.583 22.446 115.388 22.0215 116.431 22.4948" stroke="#000001" stroke-width="0.5" stroke-linecap="round" stroke-linejoin="round"/>
<path d="M113.897 16.3143C115.927 16.3143 117.572 17.9499 117.572 19.9683V21.6039C116.76 21.3116 113.225 19.9683 111.65 18.0891L110.222 21.423V19.9683C110.222 17.9499 111.867 16.3143 113.897 16.3143Z" fill="#000001"/>
<path d="M113.897 16.3143C115.927 16.3143 117.572 17.9499 117.572 19.9683V21.6039C116.76 21.3116 113.225 19.9683 111.65 18.0891L110.222 21.423V19.9683C110.222 17.9499 111.867 16.3143 113.897 16.3143Z" stroke="#000001" stroke-linecap="round" stroke-linejoin="round"/>
<path d="M105.28 53.3206C105.28 52.2975 105.455 51.2813 105.798 50.3209L107.534 45.421H120.379L122.115 50.3209C122.458 51.2883 122.633 52.3045 122.633 53.3206L122.591 70.7902H105.343L105.287 53.3206H105.28Z" fill="#000001"/>
<path d="M105.28 53.3206C105.28 52.2975 105.455 51.2813 105.798 50.3209L107.534 45.421H120.379L122.115 50.3209C122.458 51.2883 122.633 52.3045 122.633 53.3206L122.591 70.7902H105.343L105.287 53.3206H105.28Z" stroke="#000001" stroke-linecap="round" stroke-linejoin="round"/>
<path d="M125.398 42.6997C125.398 42.6997 126.007 45.3793 125.874 46.1101C125.741 46.8409 125.006 47.7944 124.313 47.7527C123.62 47.7109 121.94 44.9478 121.94 44.9478L122.206 43.3609L125.398 42.6997Z" fill="white"/>
<path d="M125.398 42.6997C125.398 42.6997 126.007 45.3793 125.874 46.1101C125.741 46.8409 125.006 47.7944 124.313 47.7527C123.62 47.7109 121.94 44.9478 121.94 44.9478L122.206 43.3609L125.398 42.6997Z" stroke="#000001" stroke-linecap="round" stroke-linejoin="round"/>
<path d="M123.144 43.3469L124.964 44.3004" stroke="#000001" stroke-linecap="round" stroke-linejoin="round"/>
<path d="M123.095 32.8931L126.259 42.5953L121.17 43.7507L120.883 40.4864L123.095 32.8931Z" fill="white"/>
<path d="M123.095 32.8931L126.259 42.5953L121.17 43.7507L120.883 40.4864L123.095 32.8931Z" stroke="#000001" stroke-linecap="round" stroke-linejoin="round"/>
<path d="M102.214 43.0059C102.214 43.0059 101.78 45.4697 102.13 46.1587C102.48 46.8478 104.258 47.6273 105.252 47.4951C106.253 47.3628 106.631 43.9803 106.631 43.9803L102.214 43.0059Z" fill="white"/>
<path d="M102.214 43.0059C102.214 43.0059 101.78 45.4697 102.13 46.1587C102.48 46.8478 104.258 47.6273 105.252 47.4951C106.253 47.3628 106.631 43.9803 106.631 43.9803L102.214 43.0059Z" stroke="#000001" stroke-linecap="round" stroke-linejoin="round"/>
<path d="M104.734 32.8931L102.06 42.5953L107.121 43.9734L106.946 40.4864L104.734 32.8931Z" fill="white"/>
<path d="M104.734 32.8931L102.06 42.5953L107.121 43.9734L106.946 40.4864L104.734 32.8931Z" stroke="#000001" stroke-linecap="round" stroke-linejoin="round"/>
<path d="M103.908 44.2518L110.943 41.0154C110.943 41.0154 112.504 39.1571 112.763 39.1988C113.022 39.2406 115.843 42.1777 115.542 42.303C115.241 42.4352 114.849 42.651 114.541 42.5605C114.24 42.477 113.022 42.0872 113.022 42.0872C113.022 42.0872 112.238 42.6927 111.804 42.8667C111.37 43.0407 111.062 42.999 111.062 42.999C111.062 42.999 106.834 47.1611 106.309 47.3768C105.784 47.5926 104.146 48.3443 103.04 47.3768C102.508 46.9105 102.424 46.3676 102.424 46.3676" fill="white"/>
<path d="M103.908 44.2518L110.943 41.0154C110.943 41.0154 112.504 39.1571 112.763 39.1988C113.022 39.2406 115.843 42.1777 115.542 42.303C115.241 42.4352 114.849 42.651 114.541 42.5605C114.24 42.477 113.022 42.0872 113.022 42.0872C113.022 42.0872 112.238 42.6927 111.804 42.8667C111.37 43.0407 111.062 42.999 111.062 42.999C111.062 42.999 106.834 47.1611 106.309 47.3768C105.784 47.5926 104.146 48.3443 103.04 47.3768C102.508 46.9105 102.424 46.3676 102.424 46.3676" stroke="#000001" stroke-linecap="round" stroke-linejoin="round"/>
<path d="M113.125 35.6146L111.306 46.9413L120.548 48.4082L122.367 37.0815L113.125 35.6146Z" fill="#000001"/>
<path d="M113.125 35.6146L111.306 46.9413L120.548 48.4082L122.367 37.0815L113.125 35.6146Z" stroke="#000001" stroke-linecap="round" stroke-linejoin="round"/>
<path d="M119.966 35.9067L119.616 37.6745L115.367 36.9785L115.71 35.2455L119.966 35.9067Z" fill="white"/>
<path d="M119.966 35.9067L119.616 37.6745L115.367 36.9785L115.71 35.2455L119.966 35.9067Z" stroke="#000001" stroke-linecap="round" stroke-linejoin="round"/>
<path d="M122.913 43.3818C122.773 42.4213 122.535 41.3564 122.535 41.2798C122.003 41.085 120.344 41.2172 120.141 41.5095C119.945 41.8088 119.875 42.7623 119.875 42.7623L121.366 43.1451C121.541 43.7854 121.807 44.732 121.933 44.9408C122.129 45.2749 122.528 45.2401 122.899 44.906C122.941 44.8712 122.962 44.8016 122.983 44.7111" fill="white"/>
<path d="M122.913 43.3818C122.773 42.4213 122.535 41.3564 122.535 41.2798C122.003 41.085 120.344 41.2172 120.141 41.5095C119.945 41.8088 119.875 42.7623 119.875 42.7623L121.366 43.1451C121.541 43.7854 121.807 44.732 121.933 44.9408C122.129 45.2749 122.528 45.2401 122.899 44.906C122.941 44.8712 122.962 44.8016 122.983 44.7111" stroke="#000001" stroke-linecap="round" stroke-linejoin="round"/>
<path d="M167.811 14.8457H135.772V56.3691H167.811V14.8457Z" fill="#C0C4C7"/>
<path d="M167.811 14.8457H135.772V56.3691H167.811V14.8457Z" stroke="#000001" stroke-linecap="round" stroke-linejoin="round"/>
<path d="M166.194 16.9407H137.382V54.2811H166.194V16.9407Z" fill="white"/>
<path d="M166.194 16.9407H137.382V54.2811H166.194V16.9407Z" stroke="#000001" stroke-linecap="round" stroke-linejoin="round"/>
<path d="M155.981 12.7717H154.784V11.3101H148.785V12.7717H147.588C146.545 12.7717 145.698 13.6138 145.698 14.6509V18.284H157.857V14.6509C157.857 13.6138 157.01 12.7717 155.967 12.7717" fill="#000001"/>
<path d="M155.981 12.7717H154.784V11.3101H148.785V12.7717H147.588C146.545 12.7717 145.698 13.6138 145.698 14.6509V18.284H157.857V14.6509C157.857 13.6138 157.01 12.7717 155.967 12.7717H155.981Z" stroke="#000001" stroke-linecap="round" stroke-linejoin="round"/>
<path d="M144.725 25.6686H139.629V30.7355H144.725V25.6686Z" fill="white"/>
<path d="M144.725 25.6686H139.629V30.7355H144.725V25.6686Z" stroke="#000001" stroke-linecap="round" stroke-linejoin="round"/>
<path d="M144.725 34.6748H139.629V39.7417H144.725V34.6748Z" fill="white"/>
<path d="M144.725 34.6748H139.629V39.7417H144.725V34.6748Z" stroke="#000001" stroke-linecap="round" stroke-linejoin="round"/>
<path d="M144.725 43.681H139.629V48.7479H144.725V43.681Z" fill="white"/>
<path d="M144.725 43.681H139.629V48.7479H144.725V43.681Z" stroke="#000001" stroke-linecap="round" stroke-linejoin="round"/>
<path d="M147.175 27.9236H162.841" stroke="#000001" stroke-linecap="round" stroke-linejoin="round"/>
<path d="M147.175 37.6815H162.841" stroke="#000001" stroke-linecap="round" stroke-linejoin="round"/>
<path d="M147.175 46.8756H162.841" stroke="#000001" stroke-linecap="round" stroke-linejoin="round"/>
<path d="M141.099 27.1789L142.226 28.9746L146.286 24.4158" fill="white"/>
<path d="M141.099 27.1789L142.226 28.9746L146.286 24.4158" stroke="#000001" stroke-linecap="round" stroke-linejoin="round"/>
<path d="M141.099 36.2895L142.226 38.0852L146.286 33.5264" fill="white"/>
<path d="M141.099 36.2895L142.226 38.0852L146.286 33.5264" stroke="#000001" stroke-linecap="round" stroke-linejoin="round"/>
<path d="M141.099 45.4001L142.226 47.1958L146.286 42.637" fill="white"/>
<path d="M141.099 45.4001L142.226 47.1958L146.286 42.637" stroke="#000001" stroke-linecap="round" stroke-linejoin="round"/>
<path d="M135.226 40.723H126.259" stroke="#000001" stroke-linecap="round" stroke-linejoin="round"/>
<path d="M90.1811 277.085C87.6821 277.822 81.9071 276.966 81.9001 276.966C81.8371 276.959 83.6221 273.354 83.7551 273.138C85.3581 270.654 89.9291 266.791 93.1421 267.633C95.4591 268.245 96.4741 270.751 95.6621 272.888C94.8361 275.073 92.3021 276.458 90.1741 277.085" fill="#000001"/>
<path d="M36.2391 274.683C36.1831 274.711 35.6651 270.723 35.6651 270.466C35.6231 267.515 37.2891 261.786 40.4391 260.722C42.7071 259.956 44.9471 261.494 45.4581 263.721C45.9831 265.997 44.6321 268.545 43.2041 270.229C41.5311 272.213 36.2391 274.669 36.2321 274.676" fill="#000001"/>
<path d="M23.877 264.021C25.62 264.995 29.736 265.413 30.758 265.503C31.269 266.199 31.801 266.944 32.375 267.786C33.376 269.268 34.489 270.96 35.574 272.874C35.868 273.382 36.155 273.946 36.449 274.481C35.77 273.681 34.811 272.588 34.706 272.491C32.788 270.73 28.042 268.454 25.494 269.881C23.66 270.911 23.359 273.27 24.521 274.906C25.711 276.583 28.175 277.196 30.128 277.265C32.165 277.328 36.099 275.769 36.96 275.414C37.59 276.611 38.206 277.864 38.78 279.2C39.767 281.504 40.698 284.017 41.307 286.689C41.223 286.724 41.237 286.717 41.153 286.759C40.614 285.945 39.445 284.253 39.333 284.121C37.618 282.165 33.152 279.381 30.464 280.523C28.525 281.344 27.965 283.655 28.945 285.416C29.946 287.211 32.326 288.095 34.258 288.374C36.484 288.687 41.23 287.288 41.412 287.232C41.951 289.731 42.315 292.341 42.539 295.007C42.7 296.941 42.784 298.904 42.854 300.881C42.49 300.296 40.957 298.076 40.824 297.93C39.109 295.974 34.643 293.19 31.955 294.331C30.016 295.153 29.456 297.463 30.436 299.224C31.437 301.02 33.817 301.904 35.749 302.182C37.919 302.489 42.476 301.166 42.861 301.055C42.889 301.953 42.924 302.843 42.945 303.741C43.022 306.671 43.078 309.616 43.232 312.518C43.281 313.52 43.372 314.508 43.456 315.504C42.882 314.648 41.811 313.103 41.706 312.977C39.991 311.021 35.525 308.237 32.837 309.379C30.898 310.2 30.338 312.511 31.318 314.272C32.319 316.067 34.699 316.951 36.631 317.223C38.57 317.501 42.427 316.471 43.512 316.165C43.666 317.814 43.855 319.443 44.114 321.037C44.24 321.726 44.331 322.429 44.485 323.083C44.632 323.744 44.779 324.399 44.919 325.046C45.262 326.375 45.584 327.607 45.934 328.839C46.109 329.459 46.291 330.043 46.466 330.642C46.018 329.688 45.283 328.185 45.199 328.053C43.806 325.86 39.809 322.436 36.981 323.16C34.944 323.682 34.034 325.881 34.734 327.767C35.448 329.695 37.667 330.927 39.536 331.484C41.594 332.103 46.151 331.519 46.704 331.442C47.145 332.911 47.586 334.344 48.027 335.667C48.384 336.753 48.734 337.769 49.077 338.743H51.002C50.575 337.609 50.127 336.398 49.672 335.11C49.245 333.92 48.818 332.646 48.391 331.338C48.902 331.136 52.864 329.528 54.474 328.025C56.119 329.104 57.995 330.015 58.324 330.175C57.876 331.644 57.456 333.078 57.085 334.428C56.658 335.959 56.287 337.4 55.951 338.736H57.827C58.107 337.518 58.408 336.238 58.758 334.859C59.066 333.635 59.409 332.34 59.78 331.011C60.34 331.129 64.834 332.02 66.927 331.547C68.831 331.115 71.127 330.036 71.974 328.171C72.8 326.34 72.051 324.085 70.056 323.417C67.284 322.499 63.063 325.637 61.516 327.732C61.418 327.865 60.424 329.577 59.941 330.468C60.165 329.667 60.389 328.867 60.641 328.039C60.991 326.842 61.397 325.589 61.789 324.371C62.013 323.744 62.244 323.118 62.468 322.478C62.685 321.83 62.972 321.239 63.224 320.612C63.616 319.694 64.064 318.775 64.512 317.849C65.716 318.274 69.272 319.471 71.155 319.332C73.101 319.193 75.537 318.476 76.657 316.75C77.756 315.065 77.357 312.72 75.481 311.766C72.877 310.437 68.229 312.908 66.381 314.745C66.325 314.808 65.975 315.232 65.562 315.747C66.024 314.856 66.486 313.973 66.983 313.089C68.397 310.583 69.916 308.07 71.435 305.544C71.75 305.015 72.058 304.486 72.373 303.964C73.388 304.326 77.224 305.655 79.198 305.509C81.144 305.37 83.58 304.653 84.7 302.927C85.799 301.243 85.4 298.897 83.524 297.944C80.92 296.621 76.272 299.085 74.424 300.923C74.361 300.985 73.941 301.5 73.479 302.078C74.284 300.693 75.061 299.308 75.796 297.902C77.084 295.452 78.218 292.967 79.121 290.483C79.478 290.615 83.951 292.257 86.142 292.104C88.088 291.965 90.524 291.248 91.644 289.522C92.743 287.838 92.344 285.492 90.468 284.539C87.864 283.209 83.216 285.68 81.368 287.518C81.235 287.65 79.744 289.508 79.233 290.197C79.24 290.169 79.261 290.141 79.268 290.107C80.192 287.483 80.752 284.866 81.165 282.353C81.578 279.848 81.753 277.46 81.851 275.254C81.956 273.048 81.921 271.022 81.872 269.234C81.837 268.266 81.788 267.375 81.732 266.554C81.739 266.561 81.781 266.596 81.781 266.596C81.823 266.631 83.048 263.318 83.104 263.095C83.72 260.575 83.412 255.341 80.92 253.824C79.121 252.731 76.902 253.615 76.027 255.425C75.131 257.276 75.789 259.719 76.678 261.438C77.595 263.206 80.794 265.816 81.599 266.45C81.641 267.306 81.669 268.224 81.683 269.241C81.69 271.029 81.683 273.048 81.529 275.24C81.487 275.825 81.424 276.451 81.368 277.064C81.242 276.02 81.053 274.586 81.018 274.454C80.395 271.934 77.7 267.431 74.781 267.222C72.681 267.076 71.12 268.872 71.183 270.883C71.246 272.936 72.961 274.802 74.55 275.922C76.209 277.091 80.36 277.948 81.27 278.129C81.13 279.472 80.955 280.857 80.689 282.284C80.234 284.747 79.618 287.357 78.645 289.919C78.554 289.905 78.568 289.905 78.477 289.891C78.477 288.917 78.442 286.856 78.421 286.689C78.078 284.114 75.894 279.34 73.017 278.825C70.945 278.449 69.195 280.07 69.034 282.068C68.873 284.114 70.364 286.16 71.827 287.448C73.507 288.93 78.246 290.364 78.428 290.42C77.49 292.8 76.349 295.174 75.054 297.526C74.116 299.231 73.094 300.916 72.058 302.6C72.079 301.911 72.03 299.217 72.002 299.022C71.659 296.447 69.475 291.673 66.605 291.158C64.533 290.782 62.783 292.403 62.622 294.401C62.461 296.447 63.952 298.493 65.415 299.781C67.053 301.229 71.589 302.628 71.974 302.739C71.498 303.505 71.029 304.263 70.553 305.029C68.985 307.514 67.403 309.998 65.926 312.504C65.408 313.374 64.939 314.244 64.456 315.114C64.456 314.084 64.421 312.212 64.4 312.052C64.057 309.476 61.873 304.709 59.003 304.187C56.931 303.811 55.181 305.426 55.02 307.43C54.859 309.476 56.35 311.523 57.813 312.81C59.276 314.105 63.063 315.358 64.141 315.699C63.357 317.153 62.608 318.615 61.936 320.09C61.663 320.731 61.341 321.371 61.11 322.004C60.865 322.638 60.627 323.257 60.389 323.877C59.941 325.171 59.521 326.382 59.136 327.6C58.933 328.213 58.765 328.797 58.576 329.396C58.73 328.352 58.954 326.695 58.954 326.542C59.01 323.946 57.575 318.9 54.817 317.954C52.822 317.272 50.848 318.608 50.386 320.564C50.33 320.814 50.295 321.065 50.281 321.322C48.916 323.201 48.097 325.951 48.013 327.677C48.006 327.844 48.132 329.813 48.216 330.823C47.957 330.029 47.705 329.243 47.453 328.415C47.082 327.224 46.725 325.958 46.375 324.726C46.214 324.078 46.053 323.431 45.892 322.777C45.717 322.116 45.626 321.468 45.486 320.807C45.304 319.833 45.164 318.817 45.024 317.801C46.263 317.494 49.896 316.541 51.387 315.392C52.934 314.209 54.565 312.274 54.551 310.221C54.53 308.21 52.899 306.477 50.806 306.706C47.901 307.026 45.388 311.641 44.87 314.181C44.856 314.265 44.8 314.815 44.744 315.462C44.639 314.467 44.527 313.471 44.45 312.462C44.24 309.595 44.114 306.665 43.974 303.727C43.946 303.115 43.911 302.502 43.876 301.897C44.919 301.646 48.86 300.644 50.428 299.447C51.975 298.264 53.606 296.329 53.585 294.276C53.564 292.264 51.933 290.531 49.84 290.761C46.935 291.081 44.422 295.696 43.904 298.236C43.883 298.326 43.82 298.981 43.757 299.718C43.659 298.125 43.54 296.538 43.379 294.965C43.092 292.216 42.658 289.522 42.035 286.954C42.406 286.87 47.047 285.791 48.79 284.455C50.33 283.272 51.968 281.337 51.947 279.284C51.926 277.272 50.295 275.539 48.202 275.769C45.297 276.089 42.784 280.704 42.266 283.244C42.231 283.425 42.021 285.798 41.972 286.648C41.965 286.62 41.958 286.585 41.951 286.55C41.272 283.857 40.285 281.365 39.228 279.047C38.185 276.737 37.002 274.642 35.861 272.748C34.727 270.848 33.572 269.185 32.543 267.716C31.976 266.923 31.444 266.213 30.94 265.552C30.954 265.552 31.003 265.552 31.003 265.552C31.059 265.552 30.24 262.121 30.163 261.912C29.274 259.469 26.117 255.272 23.198 255.376C21.091 255.453 19.733 257.402 20.006 259.392C20.286 261.425 22.19 263.102 23.891 264.048" fill="#000001"/>
</g>
<defs>
<clipPath id="clip0_0_740">
<rect width="350" height="348" fill="white"/>
</clipPath>
</defs>
</svg>
